<svg xmlns="http://www.w3.org/2000/svg" width="100%" viewBox="0 0 495.87 511.999" preserveAspectRatio="xMidYMid meet">
  <path d="M71-2859a255.392,255.392,0,0,1-85.067-14.473,255.417,255.417,0,0,1-38.308-17.164A257.136,257.136,0,0,1-87.042-2913.6a258.292,258.292,0,0,1-30.408-28.133,257.832,257.832,0,0,1-25.53-32.691,256.222,256.222,0,0,1-20.035-36.63A254.879,254.879,0,0,1-176.935-3051h137.06a128.715,128.715,0,0,0,45.969,46.348A127.334,127.334,0,0,0,36.8-2991.62,128.312,128.312,0,0,0,71-2987a128.311,128.311,0,0,0,34.2-4.619,127.336,127.336,0,0,0,30.706-13.032A128.72,128.72,0,0,0,181.876-3051H318.935a254.888,254.888,0,0,1-13.92,39.951,256.222,256.222,0,0,1-20.035,36.63,257.836,257.836,0,0,1-25.53,32.691,258.285,258.285,0,0,1-30.408,28.133,257.135,257.135,0,0,1-34.667,22.958,255.426,255.426,0,0,1-38.308,17.164A255.391,255.391,0,0,1,71-2859ZM-39.876-3179H-176.935a254.879,254.879,0,0,1,13.92-39.951,256.225,256.225,0,0,1,20.035-36.63,257.861,257.861,0,0,1,25.53-32.691A258.273,258.273,0,0,1-87.042-3316.4a257.183,257.183,0,0,1,34.667-22.958,255.417,255.417,0,0,1,38.308-17.164A255.4,255.4,0,0,1,71-3371a255.4,255.4,0,0,1,85.066,14.473,255.426,255.426,0,0,1,38.308,17.164,257.181,257.181,0,0,1,34.667,22.958,258.275,258.275,0,0,1,30.408,28.133,257.863,257.863,0,0,1,25.53,32.691,256.229,256.229,0,0,1,20.035,36.63A254.908,254.908,0,0,1,318.934-3179H181.876a128.716,128.716,0,0,0-45.97-46.348A127.325,127.325,0,0,0,105.2-3238.38,128.314,128.314,0,0,0,71-3243a128.314,128.314,0,0,0-34.2,4.619,127.325,127.325,0,0,0-30.706,13.033A128.717,128.717,0,0,0-39.875-3179Z" transform="translate(176.935 3371)" fill="#0d0d16"/>
</svg>
