<svg xmlns="http://www.w3.org/2000/svg" width="100%" viewBox="0 0 855.735 264.891" preserveAspectRatio="xMidYMid meet">
  <g transform="translate(-205.065 -251)">
    <path d="M-48.935-3106.109a131.594,131.594,0,0,1-43.917-7.488,131.72,131.72,0,0,1-19.777-8.88,132.735,132.735,0,0,1-17.9-11.878,133.469,133.469,0,0,1-15.7-14.555,133.357,133.357,0,0,1-13.18-16.913,132.643,132.643,0,0,1-10.343-18.951,132.049,132.049,0,0,1-7.187-20.669h70.759a66.525,66.525,0,0,0,23.732,23.979,65.652,65.652,0,0,0,15.852,6.743,66.106,66.106,0,0,0,17.656,2.39,66.106,66.106,0,0,0,17.656-2.39,65.653,65.653,0,0,0,15.852-6.743,66.524,66.524,0,0,0,23.732-23.979H79.065a132.055,132.055,0,0,1-7.187,20.669,132.64,132.64,0,0,1-10.343,18.951,133.372,133.372,0,0,1-13.18,16.913,133.456,133.456,0,0,1-15.7,14.555,132.734,132.734,0,0,1-17.9,11.878,131.724,131.724,0,0,1-19.777,8.88A131.594,131.594,0,0,1-48.935-3106.109Zm-57.241-165.556h-70.759a132.069,132.069,0,0,1,7.187-20.669,132.644,132.644,0,0,1,10.343-18.951,133.369,133.369,0,0,1,13.18-16.913,133.43,133.43,0,0,1,15.7-14.555,132.782,132.782,0,0,1,17.9-11.878,131.7,131.7,0,0,1,19.777-8.88A131.6,131.6,0,0,1-48.935-3371a131.6,131.6,0,0,1,43.917,7.488,131.7,131.7,0,0,1,19.777,8.88,132.78,132.78,0,0,1,17.9,11.878,133.44,133.44,0,0,1,15.7,14.555,133.37,133.37,0,0,1,13.18,16.913,132.648,132.648,0,0,1,10.343,18.951,132.073,132.073,0,0,1,7.186,20.668H8.306a66.525,66.525,0,0,0-23.732-23.979,65.662,65.662,0,0,0-15.852-6.743,66.117,66.117,0,0,0-17.656-2.39,66.117,66.117,0,0,0-17.656,2.39,65.662,65.662,0,0,0-15.852,6.743,66.526,66.526,0,0,0-23.732,23.979Z" transform="translate(382 3622)" fill="#0d0d16"/>
    <path d="M46.6-148V0H12.4V-148ZM122.2,1.6a61.6,61.6,0,0,1-29.5-7,51.256,51.256,0,0,1-20.6-20q-7.5-13-7.5-30.4,0-17.2,7.6-30.3A51.569,51.569,0,0,1,93-106.2a62.188,62.188,0,0,1,29.6-7,62.188,62.188,0,0,1,29.6,7A51.569,51.569,0,0,1,173-86.1q7.6,13.1,7.6,30.3t-7.7,30.3a52.068,52.068,0,0,1-21,20.1A62.779,62.779,0,0,1,122.2,1.6Zm0-29.6a22.28,22.28,0,0,0,16.7-7.2q6.9-7.2,6.9-20.6t-6.7-20.6a21.652,21.652,0,0,0-16.5-7.2A21.7,21.7,0,0,0,106-76.5q-6.6,7.1-6.6,20.7,0,13.4,6.5,20.6A21.037,21.037,0,0,0,122.2-28ZM192-55.8q0-17.4,7.1-30.4a49.313,49.313,0,0,1,19.8-20q12.7-7,29.1-7,21,0,35.1,11t18.5,31H265.2Q260.6-84,247.4-84a17.941,17.941,0,0,0-15,7.3q-5.6,7.3-5.6,20.9t5.6,20.9a17.941,17.941,0,0,0,15,7.3q13.2,0,17.8-12.8h36.4Q297.2-20.8,283-9.6T248,1.6q-16.4,0-29.1-7a49.313,49.313,0,0,1-19.8-20Q192-38.4,192-55.8ZM388,0,354-46.8V0H319.8V-148H354v81.8l33.8-45.4H430l-46.4,56L430.4,0Zm72.6-123.2q-9,0-14.7-5.3a17.174,17.174,0,0,1-5.7-13.1,17.4,17.4,0,0,1,5.7-13.3q5.7-5.3,14.7-5.3,8.8,0,14.5,5.3a17.4,17.4,0,0,1,5.7,13.3,17.174,17.174,0,0,1-5.7,13.1Q469.4-123.2,460.6-123.2Zm17,11.6V0H443.4V-111.6Zm42-11.6q-9,0-14.7-5.3a17.174,17.174,0,0,1-5.7-13.1,17.4,17.4,0,0,1,5.7-13.3q5.7-5.3,14.7-5.3,8.8,0,14.5,5.3a17.4,17.4,0,0,1,5.7,13.3,17.174,17.174,0,0,1-5.7,13.1Q528.4-123.2,519.6-123.2Zm17,11.6V0H502.4V-111.6Z" transform="translate(521 453)" fill="#0d0d16"/>
  </g>
</svg>
